<svg xmlns="http://www.w3.org/2000/svg" version="1.1"  height="60.0234375" width="255.5625">
    <defs id="SvgjsDefs1032"></defs>
    <g id="SvgjsG1033" transform="translate(-1.828125, -195)" fill="#000000">
        <path d="M21.59 201.21C10.67 201.21 1.83 209.99 1.83 220.92C1.83 231.79 10.67 240.68 21.59 240.68C32.52 240.68 40.83 231.79 40.83 220.92C40.83 209.99 32.52 201.21 21.59 201.21ZM21.59 237.54C12.55 237.54 5.18 229.96 5.18 220.92C5.18 211.82 12.55 204.29 21.59 204.29C30.64 204.29 37.49 211.82 37.49 220.92C37.49 229.96 30.64 237.54 21.59 237.54ZM58.50 214.33C54.90 214.33 51.29 215.79 49.25 218.36C49.04 218.62 48.57 218.77 48.57 218.09C48.57 218.04 48.57 217.26 48.57 216.58C48.57 215.69 47.84 214.96 46.95 214.96L46.84 214.96C45.96 214.96 45.28 215.69 45.28 216.58L45.28 245.75C45.28 246.64 45.96 247.32 46.84 247.32L46.95 247.32C47.84 247.32 48.57 246.64 48.57 245.75C48.57 245.75 48.57 237.18 48.57 236.81C48.57 236.24 48.94 236.34 49.04 236.50C51.13 239.27 54.69 240.68 58.40 240.68C65.72 240.68 71.73 234.88 71.73 227.56C71.73 220.24 65.82 214.33 58.50 214.33ZM58.40 237.54C52.96 237.54 48.62 232.99 48.62 227.56C48.62 222.12 53.07 217.47 58.50 217.47C63.94 217.47 68.39 222.12 68.39 227.56C68.39 232.99 63.89 237.54 58.40 237.54ZM91.96 214.96L76.44 214.96C75.55 214.96 74.82 215.69 74.82 216.58L74.82 216.68C74.82 217.57 75.55 218.30 76.44 218.30L81.98 218.30C82.29 218.30 82.50 218.56 82.50 218.83L82.50 238.38C82.50 239.27 83.23 240 84.12 240L84.28 240C85.17 240 85.90 239.27 85.90 238.38L85.90 218.83C85.90 218.56 86.11 218.30 86.37 218.30L91.96 218.30C92.85 218.30 93.59 217.57 93.59 216.68L93.59 216.58C93.59 215.69 92.85 214.96 91.96 214.96ZM109.85 214.33C102.58 214.33 96.67 220.24 96.67 227.50C96.67 234.77 102.58 240.68 109.85 240.68C117.16 240.68 123.07 234.77 123.07 227.50C123.07 220.24 117.16 214.33 109.85 214.33ZM109.85 237.54C104.46 237.54 100.02 232.94 100.02 227.50C100.02 222.07 104.46 217.47 109.85 217.47C115.28 217.47 119.67 222.07 119.67 227.50C119.67 232.94 115.28 237.54 109.85 237.54ZM146.97 214.96L128.98 214.96C128.09 214.96 127.36 215.69 127.36 216.58L127.36 238.38C127.36 239.27 128.09 240 128.98 240L129.14 240C130.03 240 130.76 239.27 130.76 238.38L130.76 218.83C130.76 218.56 130.97 218.30 131.23 218.30L144.72 218.30C144.98 218.30 145.24 218.56 145.24 218.83L145.24 238.38C145.24 239.27 145.97 240 146.86 240L146.97 240C147.85 240 148.59 239.27 148.59 238.38L148.59 216.58C148.59 215.69 147.85 214.96 146.97 214.96ZM178.75 224.84C178.39 222.22 177.29 219.98 175.46 218.15C172.85 215.53 169.76 214.33 166.10 214.33C162.44 214.33 159.36 215.53 156.74 218.15C154.18 220.71 152.87 223.79 152.87 227.45C152.87 231.11 154.18 234.20 156.74 236.81C159.36 239.37 162.44 240.68 166.10 240.68C169.92 240.68 173.53 239.06 176.09 236.08C176.82 235.19 176.82 234.04 175.88 233.41C174.68 232.68 173.94 233.20 172.74 234.67C171.54 236.13 168.77 237.54 166.10 237.54C163.38 237.54 161.08 236.24 159.20 234.35C157.47 232.68 156.53 230.54 156.32 227.92C156.27 227.14 156.43 226.93 157.16 226.93L177.18 226.93C178.65 226.93 178.86 225.62 178.75 224.84ZM174.15 223.58L158.05 223.58C157.21 223.58 156.95 223.53 157.32 222.85C157.74 222.17 158.31 221.39 159.15 220.55C161.08 218.62 163.38 217.47 166.10 217.47C168.77 217.47 171.07 218.62 173.00 220.55C173.73 221.23 174.26 221.91 174.62 222.59C174.94 223.11 175.25 223.58 174.15 223.58ZM207.09 214.96L206.93 214.96C206.04 214.96 205.31 215.69 205.31 216.58C205.31 216.63 205.31 217.99 205.31 218.04C205.31 218.77 204.95 218.56 204.89 218.51C202.28 215.74 198.78 214.33 195.22 214.33C187.95 214.33 181.99 219.71 181.99 227.56C181.99 235.66 187.33 240.68 195.22 240.68C198.78 240.68 202.65 239.22 205.10 236.18C205.31 235.87 205.63 237.75 205.31 238.90C205.00 240.10 203.95 241.52 202.38 243.08C200.92 244.55 199.09 245.44 197.16 245.54C196.27 245.59 194.96 246.01 195.12 247.69C195.27 248.99 196.53 249.36 197.47 249.20C200.29 248.78 202.75 247.63 204.84 245.54C207.40 242.98 208.66 239.95 208.66 236.39L208.66 216.58C208.66 215.69 207.93 214.96 207.09 214.96ZM195.22 237.54C189.37 237.54 185.39 233.52 185.39 227.56C185.39 222.33 189.78 217.47 195.22 217.47C200.71 217.47 205.31 222.07 205.31 227.56C205.31 232.99 200.71 237.54 195.22 237.54ZM224.03 240.68C226.12 240.68 229.26 239.95 230.77 237.86C230.93 237.65 231.19 237.75 231.19 237.96C231.19 238.07 231.19 238.54 231.19 238.64C231.19 239.37 231.98 240 232.81 240L232.97 240C233.86 240 234.64 239.27 234.64 238.33L234.59 216.63C234.59 215.69 233.86 214.96 232.92 214.96L232.81 214.96C231.87 214.96 231.14 215.69 231.14 216.63C231.14 216.63 231.14 230.12 231.14 230.75C231.14 235.19 228.84 237.44 224.03 237.44C220.32 237.44 217.34 235.09 217.34 229.80L217.34 216.63C217.34 215.69 216.61 214.96 215.72 214.96L215.56 214.96C214.67 214.96 213.89 215.69 213.89 216.63L213.89 230.01C213.89 238.27 219.17 240.68 224.03 240.68ZM256.39 215.11C254.93 214.54 253.52 214.33 251.90 214.33C247.30 214.33 239.71 214.75 239.71 221.75C239.71 225.62 241.75 227.50 245.15 228.50C245.67 228.65 245.83 228.81 245.41 229.33C242.80 232.63 239.30 237.33 239.30 237.33C238.77 238.01 238.88 239.06 239.61 239.58L239.71 239.69C240.45 240.21 241.44 240.05 242.01 239.32C242.01 239.32 245.88 233.67 248.34 230.17C248.92 229.33 250.12 229.23 251.27 229.23C251.37 229.23 253.10 229.23 253.10 229.23C253.83 229.23 253.99 229.70 253.99 230.28C253.99 230.90 253.99 238.38 253.99 238.38C253.99 239.27 254.72 240 255.61 240L255.77 240C256.65 240 257.39 239.27 257.39 238.38L257.39 216.58C257.39 215.90 256.97 215.32 256.39 215.11ZM243.06 221.75C243.06 218.83 245.05 217.83 247.30 217.52C249.18 217.26 252.16 217.47 252.89 217.52C253.52 217.57 253.99 217.88 253.99 218.51C253.99 220.34 253.99 223.01 253.99 225.26C253.99 225.62 253.83 226.09 253.26 226.09C252.73 226.09 251.74 226.09 251.74 226.09C246.41 226.04 243.06 225.83 243.06 221.75Z" fill="#ffffff" style="fill: rgb(255, 255, 255);"></path>
    </g>
</svg>