<svg xmlns="http://www.w3.org/2000/svg" version="1.1"   height="65.0234375" width="60.5625">
    <defs id="SvgjsDefs1032"></defs>
    <g id="SvgjsG1034" transform="translate(0,0) scale(0.6)" fill="#000000">
    <g fill="#ffffff">
        <g fill="#ffffff">
            <g fill="#ffffff">
                <path d="M64.2,22c-7,0-11.4-0.7-11.7-0.7c-0.6-0.1-1-0.7-0.9-1.3c0.1-0.6,0.7-1,1.3-0.9c0.1,0,10,1.5,23.7,0     c0,0,1.6-0.2,4.2-0.5c0.6-0.1,1.2,0.4,1.2,1c0.1,0.6-0.4,1.2-1,1.2c-2.7,0.3-4.3,0.5-4.3,0.5C72,21.8,67.8,22,64.2,22z" fill="#ffffff" style="fill: rgb(255, 255, 255);"></path></g><g fill="#ffffff"><path d="M41,40.6c-0.5,0-1-0.4-1.1-0.9c-0.2-0.9-3.9-21.6,7.9-32.4V1.1c0-0.6,0.5-1.1,1.1-1.1s1.1,0.5,1.1,1.1     v7.1l-0.4,0.3C38.4,18.5,42,39,42.1,39.2c0.1,0.6-0.3,1.2-0.9,1.3C41.1,40.6,41,40.6,41,40.6z" fill="#ffffff" style="fill: rgb(255, 255, 255);"></path></g><g fill="#ffffff"><path d="M65.9,22c-0.6,0-1.1-0.5-1.1-1.1c0-11.4-8.2-12.7-8.6-12.7l-1-0.1l0-6.9c0-0.6,0.5-1.1,1.1-1.1     c0.6,0,1.1,0.5,1.1,1.1v5.1C60.1,6.9,67,10,67,20.9C67,21.5,66.5,22,65.9,22z" fill="#ffffff" style="fill: rgb(255, 255, 255);"></path></g><g fill="#ffffff"><path d="M66.9,100c-0.7,0-1.4-0.1-2-0.2c-13.5-2.4-26.6-15-27.2-15.5c-3.2-3.3-5.8-6.6-7.7-10     c-5.6-10.2-3.5-22.9,5.1-31.1l3.4-3.2c3.9-3.7,9.3-5.2,14.5-4.2c1.2-2.2,1.7-4.4,2-5.7c-0.2,0-0.5-0.1-0.8-0.1     c-2.8-0.4-4.8-3.1-4.4-5.9c0.7-5.2,3.7-9.2,3.8-9.3c0.4-0.5,1.1-0.6,1.6-0.2c0.5,0.4,0.6,1.1,0.2,1.6c0,0-2.7,3.6-3.4,8.3     c-0.2,1.6,0.9,3.1,2.5,3.4c1.1,0.2,1.9,0.3,1.9,0.3l1.1,0.1l-0.1,1.1c0,0.2-0.4,4.3-2.8,8.4l-0.4,0.7l-0.8-0.2     c-4.8-1.2-9.7,0.2-13.3,3.5l-3.4,3.2c-7.9,7.4-9.8,19.1-4.7,28.3c1.8,3.2,4.2,6.4,7.3,9.5c0.1,0.1,13.2,12.6,26,14.9     c3.7,0.7,7.4-0.9,9.4-4c1-1.6,2-3.5,2.9-5.6c1.8-4.3,2.9-8.6,3.2-12.7c0.8-9.4-1.2-17-1.3-17.1c-2-6.3-6.7-11.5-12.9-14.1     c-0.3-0.1-0.5-0.4-0.7-0.7c-0.2-0.5-2.1-5.6-2-13.7l0-1.1l1.1,0c0.1,0,5.1-0.2,11.6-0.8l0,0c0,0,1.8-0.2,4.3-0.5     c0.6-0.1,1.2,0.3,1.3,1c0.1,0.6-0.3,1.2-1,1.3c-2.5,0.3-4.4,0.5-4.4,0.5c-4.8,0.4-8.8,0.6-10.7,0.7c0.1,6.1,1.3,10.1,1.7,11.4     c6.7,2.9,11.7,8.5,13.8,15.4c0.1,0.4,2.2,8,1.3,17.9c-0.4,4.3-1.5,8.8-3.4,13.3c-0.9,2.3-2,4.3-3.1,6     C74.4,98.1,70.8,100,66.9,100z" fill="#ffffff" style="fill: rgb(255, 255, 255);"></path></g><g fill="#ffffff"><path d="M28,63.4c-0.3,0-0.5-0.1-0.7-0.3c-17.1-15.3-8.5-28.5-6.5-30.9c0.6-0.8,1.2-1.5,1.6-2.3     c5.2-8.6,3.9-17.1,3.9-17.2c-0.1-0.6,0.3-1.2,0.9-1.3c0.6-0.1,1.2,0.3,1.3,0.9c0.1,0.4,1.5,9.5-4.2,18.8     c-0.5,0.9-1.1,1.7-1.8,2.5c-2.4,3.1-9,14.3,6.3,27.9c0.5,0.4,0.5,1.1,0.1,1.6C28.6,63.2,28.3,63.4,28,63.4z" fill="#ffffff" style="fill: rgb(255, 255, 255);"></path></g><g fill="#ffffff"><path d="M40.7,26.8c-0.1,0-0.2,0-0.3,0c-7.4-2-5.7-14-5.7-14.5c0.1-0.6,0.6-1,1.3-0.9c0.6,0.1,1,0.7,0.9,1.3     c0,0.1-1.4,10.5,4,12c0.6,0.2,1,0.8,0.8,1.4C41.6,26.4,41.2,26.8,40.7,26.8z" fill="#ffffff" style="fill: rgb(255, 255, 255);"></path></g></g><g fill="#ffffff"><path d="M56.4,76.4c-0.6,0-1.1-0.5-1.1-1.1s0.5-1.1,1.1-1.1c8,0,14.5-6.5,14.5-14.5c0-0.6,0.5-1.1,1.1-1.1    s1.1,0.5,1.1,1.1C73.1,68.9,65.6,76.4,56.4,76.4z" fill="#ffffff" style="fill: rgb(255, 255, 255);"></path></g><g fill="#ffffff"><path d="M56.4,71.9c-6.8,0-12.3-5.5-12.3-12.3c0-6.8,5.5-12.3,12.3-12.3c6.8,0,12.3,5.5,12.3,12.3    C68.7,66.4,63.2,71.9,56.4,71.9z M56.4,49.6c-5.5,0-10.1,4.5-10.1,10.1c0,5.5,4.5,10.1,10.1,10.1c5.5,0,10.1-4.5,10.1-10.1    C66.4,54.1,61.9,49.6,56.4,49.6z" fill="#ffffff" style="fill: rgb(255, 255, 255);"></path></g><g fill="#ffffff"><path d="M60.9,60.8c-0.6,0-1.1-0.5-1.1-1.1c0-1.9-1.5-3.4-3.4-3.4c-1.9,0-3.4,1.5-3.4,3.4c0,0.6-0.5,1.1-1.1,1.1    s-1.1-0.5-1.1-1.1c0-3.1,2.5-5.6,5.6-5.6c3.1,0,5.6,2.5,5.6,5.6C62,60.3,61.5,60.8,60.9,60.8z" fill="#ffffff" style="fill: rgb(255, 255, 255);"></path></g><g fill="#ffffff"><path d="M59.1,49.9C59.1,49.9,59,49.9,59.1,49.9c-0.7,0-1.2-0.6-1.1-1.2C58.4,41.3,53.1,38,53,38    c-0.5-0.3-0.7-1-0.4-1.5c0.3-0.5,1-0.7,1.5-0.4c0.3,0.2,6.5,4,6,12.8C60.2,49.5,59.7,49.9,59.1,49.9z" fill="#ffffff" style="fill: rgb(255, 255, 255);"></path></g></g></g>
</svg>