<svg xmlns="http://www.w3.org/2000/svg" version="1.1" height="39.43609046936035" width="32.932331085205064" style=""><rect id="backgroundrect" width="100%" height="100%" x="0" y="0" fill="none" stroke="none" style="" class="selected"/>
    <defs id="SvgjsDefs1032"/>
    
<g class="currentLayer" style=""><title>Layer 1</title><g id="SvgjsG1034" transform="translate(0) scale(0.6)" fill="#000000" class="" fill-opacity="1">
    <g fill="#000000" id="svg_1" fill-opacity="1">
        <g fill="#000000" id="svg_2" fill-opacity="1">
            <g fill="#000000" id="svg_3" fill-opacity="1">
                <path d="M36.09187316894531,13.894736051559448 c-5.252337455749512,0 -8.55380630493164,-0.442105233669281 -8.77890682220459,-0.442105233669281 c-0.4502003490924835,-0.06315789371728897 -0.7503339052200317,-0.442105233669281 -0.6753004789352417,-0.8210525512695312 c0.07503338903188705,-0.378947377204895 0.5252337455749512,-0.6315789222717285 0.9754340648651123,-0.5684210062026978 c0.07503338903188705,0 7.503338813781738,0.9473683834075928 17.782913208007812,0 c0,0 1.2005342245101929,-0.12631578743457794 3.151402235031128,-0.31578946113586426 c0.4502003490924835,-0.06315789371728897 0.900400698184967,0.2526315748691559 0.900400698184967,0.6315789222717285 c0.07503338903188705,0.378947377204895 -0.3001335561275482,0.75789475440979 -0.7503339052200317,0.75789475440979 c-2.0259015560150146,0.1894736886024475 -3.226435899734497,0.31578946113586426 -3.226435899734497,0.31578946113586426 C41.944480895996094,13.768419981002808 38.7930793762207,13.894736051559448 36.09187316894531,13.894736051559448 z" fill="#000000" style="" id="svg_4" fill-opacity="1"/></g><g fill="#000000" id="svg_5" fill-opacity="1"><path d="M18.684127807617188,25.642103910446167 c-0.37516695261001587,0 -0.7503339052200317,-0.2526315748691559 -0.8253673315048218,-0.5684210062026978 c-0.1500667780637741,-0.5684210062026978 -2.926302194595337,-13.642105102539062 5.927638053894043,-20.463157653808594 V0.6947367191314697 c0,-0.378947377204895 0.37516695261001587,-0.6947368383407593 0.8253673315048218,-0.6947368383407593 s0.8253673315048218,0.31578946113586426 0.8253673315048218,0.6947368383407593 v4.48421049118042 l-0.3001335561275482,0.1894736886024475 C16.733261108398438,11.68420958518982 19.434463500976562,24.631579160690308 19.50949478149414,24.75789523124695 c0.07503338903188705,0.378947377204895 -0.22510017454624176,0.75789475440979 -0.6753004789352417,0.8210525512695312 C18.75916290283203,25.642103910446167 18.684127807617188,25.642103910446167 18.684127807617188,25.642103910446167 z" fill="#000000" style="" id="svg_6" fill-opacity="1"/></g><g fill="#000000" id="svg_7" fill-opacity="1"><path d="M37.3674430847168,13.894736051559448 c-0.4502003490924835,0 -0.8253673315048218,-0.31578946113586426 -0.8253673315048218,-0.6947368383407593 c0,-7.1999993324279785 -6.152738094329834,-8.021052360534668 -6.452871799468994,-8.021052360534668 l-0.7503339052200317,-0.06315789371728897 l0,-4.357894420623779 c0,-0.378947377204895 0.37516695261001587,-0.6947368383407593 0.8253673315048218,-0.6947368383407593 c0.4502003490924835,0 0.8253673315048218,0.31578946113586426 0.8253673315048218,0.6947368383407593 v3.221052408218384 C33.015506744384766,4.357894420623779 38.19281005859375,6.315789222717285 38.19281005859375,13.199998617172241 C38.19281005859375,13.578946828842163 37.81764221191406,13.894736051559448 37.3674430847168,13.894736051559448 z" fill="#000000" style="" id="svg_8" fill-opacity="1"/></g><g fill="#000000" id="svg_9" fill-opacity="1"><path d="M38.11777877807617,63.15788912773132 c-0.5252337455749512,0 -1.0504674911499023,-0.06315789371728897 -1.5006678104400635,-0.12631578743457794 c-10.129508018493652,-1.51578950881958 -19.958881378173828,-9.473684310913086 -20.409082412719727,-9.789473533630371 c-2.4010684490203857,-2.0842103958129883 -4.3519368171691895,-4.168420791625977 -5.777570724487305,-6.315789222717285 c-4.201869964599609,-6.442104816436768 -2.626168727874756,-14.463156700134277 3.826702833175659,-19.642105102539062 l2.551135301589966,-2.021052598953247 c2.926302194595337,-2.3368420600891113 6.978105545043945,-3.284210205078125 10.879841804504395,-2.6526312828063965 c0.900400698184967,-1.3894736766815186 1.275567650794983,-2.778947353363037 1.5006678104400635,-3.5999996662139893 c-0.1500667780637741,0 -0.37516695261001587,-0.06315789371728897 -0.6002671122550964,-0.06315789371728897 c-2.1009349822998047,-0.2526315748691559 -3.601602792739868,-1.9578945636749268 -3.301469326019287,-3.72631573677063 c0.5252337455749512,-3.284210205078125 2.776235580444336,-5.810525894165039 2.851268768310547,-5.873683929443359 c0.3001335561275482,-0.31578946113586426 0.8253673315048218,-0.378947377204895 1.2005342245101929,-0.12631578743457794 c0.37516695261001587,0.2526315748691559 0.4502003490924835,0.6947368383407593 0.1500667780637741,1.0105262994766235 c0,0 -2.0259015560150146,2.273684024810791 -2.551135301589966,5.242105007171631 c-0.1500667780637741,1.0105262994766235 0.6753004789352417,1.9578945636749268 1.8758347034454346,2.1473684310913086 c0.8253673315048218,0.12631578743457794 1.4256343841552734,0.1894736886024475 1.4256343841552734,0.1894736886024475 l0.8253673315048218,0.06315789371728897 l-0.07503338903188705,0.6947368383407593 c0,0.12631578743457794 -0.3001335561275482,2.715789556503296 -2.1009349822998047,5.305262565612793 l-0.3001335561275482,0.442105233669281 l-0.6002671122550964,-0.12631578743457794 c-3.601602792739868,-0.75789475440979 -7.278238773345947,0.12631578743457794 -9.979440689086914,2.21052622795105 l-2.551135301589966,2.021052598953247 c-5.927638053894043,4.673684120178223 -7.353272438049316,12.06315803527832 -3.526569128036499,17.87368392944336 c1.3506009578704834,2.021052598953247 3.151402235031128,4.042105197906494 5.477437496185303,6 c0.07503338903188705,0.06315789371728897 9.904407501220703,7.957894802093506 19.508682250976562,9.41052532196045 c2.776235580444336,0.442105233669281 5.552471160888672,-0.5684210062026978 7.053138256072998,-2.526315689086914 c0.7503339052200317,-1.0105262994766235 1.5006678104400635,-2.21052622795105 2.1759684085845947,-3.536841869354248 c1.3506009578704834,-2.715789556503296 2.1759684085845947,-5.431579113006592 2.4010684490203857,-8.021052360534668 c0.6002671122550964,-5.9368414878845215 -0.900400698184967,-10.736841201782227 -0.9754340648651123,-10.800000190734863 c-1.5006678104400635,-3.978947401046753 -5.0272369384765625,-7.263157844543457 -9.679306983947754,-8.90526294708252 c-0.22510017454624176,-0.06315789371728897 -0.37516695261001587,-0.2526315748691559 -0.5252337455749512,-0.442105233669281 c-0.1500667780637741,-0.31578946113586426 -1.575701117515564,-3.536841869354248 -1.5006678104400635,-8.652630805969238 l0,-0.6947368383407593 l0.8253673315048218,0 c0.07503338903188705,0 3.826702833175659,-0.12631578743457794 8.703873634338379,-0.5052631497383118 l0,0 c0,0 1.3506009578704834,-0.12631578743457794 3.226435899734497,-0.31578946113586426 c0.4502003490924835,-0.06315789371728897 0.900400698184967,0.1894736886024475 0.9754340648651123,0.6315789222717285 c0.07503338903188705,0.378947377204895 -0.22510017454624176,0.75789475440979 -0.7503339052200317,0.8210525512695312 c-1.8758347034454346,0.1894736886024475 -3.301469326019287,0.31578946113586426 -3.301469326019287,0.31578946113586426 c-3.601602792739868,0.2526315748691559 -6.602938652038574,0.378947377204895 -8.028573036193848,0.442105233669281 c0.07503338903188705,3.8526313304901123 0.9754340648651123,6.3789472579956055 1.275567650794983,7.1999993324279785 c5.0272369384765625,1.8315789699554443 8.77890682220459,5.368420600891113 10.354607582092285,9.72631549835205 c0.07503338903188705,0.2526315748691559 1.6507346630096436,5.052631378173828 0.9754340648651123,11.305262565612793 c-0.3001335561275482,2.715789556503296 -1.1255009174346924,5.557894706726074 -2.551135301589966,8.399999618530273 c-0.6753004789352417,1.4526314735412598 -1.5006678104400635,2.715789556503296 -2.3260350227355957,3.789473533630371 C43.74528121948242,61.95788836479187 41.04408264160156,63.15788912773132 38.11777877807617,63.15788912773132 z" fill="#000000" style="" id="svg_10" fill-opacity="1"/></g><g fill="#000000" id="svg_11" fill-opacity="1"><path d="M8.929788589477539,40.04210162162781 c-0.22510017454624176,0 -0.37516695261001587,-0.06315789371728897 -0.5252337455749512,-0.1894736886024475 c-12.830710411071777,-9.66315746307373 -6.377838134765625,-18 -4.877170562744141,-19.515789031982422 c0.4502003490924835,-0.5052631497383118 0.900400698184967,-0.9473683834075928 1.2005342245101929,-1.4526314735412598 c3.901736259460449,-5.431579113006592 2.926302194595337,-10.800000190734863 2.926302194595337,-10.863158226013184 c-0.07503338903188705,-0.378947377204895 0.22510017454624176,-0.75789475440979 0.6753004789352417,-0.8210525512695312 c0.4502003490924835,-0.06315789371728897 0.900400698184967,0.1894736886024475 0.9754340648651123,0.5684210062026978 c0.07503338903188705,0.2526315748691559 1.1255009174346924,6 -3.151402235031128,11.873682975769043 c-0.37516695261001587,0.5684210062026978 -0.8253673315048218,1.0736842155456543 -1.3506009578704834,1.5789473056793213 c-1.800801396369934,1.9578945636749268 -6.753005027770996,9.03157901763916 4.7271037101745605,17.621051788330078 c0.37516695261001587,0.2526315748691559 0.37516695261001587,0.6947368383407593 0.07503338903188705,1.0105262994766235 C9.379989624023438,39.91578555107117 9.154888153076172,40.04210162162781 8.929788589477539,40.04210162162781 z" fill="#000000" style="" id="svg_12" fill-opacity="1"/></g><g fill="#000000" id="svg_13" fill-opacity="1"><path d="M18.459030151367188,16.92631506919861 c-0.07503338903188705,0 -0.1500667780637741,0 -0.22510017454624176,0 c-5.552471160888672,-1.263157844543457 -4.27690315246582,-8.8421049118042 -4.27690315246582,-9.157894134521484 c0.07503338903188705,-0.378947377204895 0.4502003490924835,-0.6315789222717285 0.9754340648651123,-0.5684210062026978 c0.4502003490924835,0.06315789371728897 0.7503339052200317,0.442105233669281 0.6753004789352417,0.8210525512695312 c0,0.06315789371728897 -1.0504674911499023,6.63157844543457 3.001335620880127,7.578947067260742 c0.4502003490924835,0.12631578743457794 0.7503339052200317,0.5052631497383118 0.6002671122550964,0.884210467338562 C19.134326934814453,16.673682928085327 18.834197998046875,16.92631506919861 18.459030151367188,16.92631506919861 z" fill="#000000" style="" id="svg_14" fill-opacity="1"/></g></g><g fill="#000000" id="svg_15" fill-opacity="1"><path d="M30.239273071289062,48.252630949020386 c-0.4502003490924835,0 -0.8253673315048218,-0.31578946113586426 -0.8253673315048218,-0.6947368383407593 s0.37516695261001587,-0.6947368383407593 0.8253673315048218,-0.6947368383407593 c6.002671241760254,0 10.879841804504395,-4.105262756347656 10.879841804504395,-9.157894134521484 c0,-0.378947377204895 0.37516695261001587,-0.6947368383407593 0.8253673315048218,-0.6947368383407593 s0.8253673315048218,0.31578946113586426 0.8253673315048218,0.6947368383407593 C42.76984786987305,43.515787839889526 37.14234161376953,48.252630949020386 30.239273071289062,48.252630949020386 z" fill="#000000" style="" id="svg_16" fill-opacity="1"/></g><g fill="#000000" id="svg_17" fill-opacity="1"><path d="M30.239273071289062,45.41052508354187 c-5.102270603179932,0 -9.229106903076172,-3.473684072494507 -9.229106903076172,-7.768420696258545 c0,-4.294736862182617 4.12683629989624,-7.768420696258545 9.229106903076172,-7.768420696258545 c5.102270603179932,0 9.229106903076172,3.473684072494507 9.229106903076172,7.768420696258545 C39.46837615966797,41.93683886528015 35.3415412902832,45.41052508354187 30.239273071289062,45.41052508354187 zM30.239273071289062,31.326313734054565 c-4.12683629989624,0 -7.578372955322266,2.8421051502227783 -7.578372955322266,6.3789472579956055 c0,3.473684072494507 3.376502513885498,6.3789472579956055 7.578372955322266,6.3789472579956055 c4.12683629989624,0 7.578372955322266,-2.8421051502227783 7.578372955322266,-6.3789472579956055 C37.742610931396484,34.16841959953308 34.36610794067383,31.326313734054565 30.239273071289062,31.326313734054565 z" fill="#000000" style="" id="svg_18" fill-opacity="1"/></g><g fill="#000000" id="svg_19" fill-opacity="1"><path d="M33.61577606201172,38.399996519088745 c-0.4502003490924835,0 -0.8253673315048218,-0.31578946113586426 -0.8253673315048218,-0.6947368383407593 c0,-1.1999999284744263 -1.1255009174346924,-2.1473684310913086 -2.551135301589966,-2.1473684310913086 c-1.4256343841552734,0 -2.551135301589966,0.9473683834075928 -2.551135301589966,2.1473684310913086 c0,0.378947377204895 -0.37516695261001587,0.6947368383407593 -0.8253673315048218,0.6947368383407593 s-0.8253673315048218,-0.31578946113586426 -0.8253673315048218,-0.6947368383407593 c0,-1.9578945636749268 1.8758347034454346,-3.536841869354248 4.201869964599609,-3.536841869354248 c2.3260350227355957,0 4.201869964599609,1.5789473056793213 4.201869964599609,3.536841869354248 C34.44114303588867,38.084208250045776 34.065975189208984,38.399996519088745 33.61577606201172,38.399996519088745 z" fill="#000000" style="" id="svg_20" fill-opacity="1"/></g><g fill="#000000" id="svg_21" fill-opacity="1"><path d="M32.26517105102539,31.51578974723816 C32.26517105102539,31.51578974723816 32.19013977050781,31.51578974723816 32.26517105102539,31.51578974723816 c-0.5252337455749512,0 -0.900400698184967,-0.378947377204895 -0.8253673315048218,-0.75789475440979 C31.739940643310547,26.08421015739441 27.763168334960938,24.000000715255737 27.68813705444336,24.000000715255737 c-0.37516695261001587,-0.1894736886024475 -0.5252337455749512,-0.6315789222717285 -0.3001335561275482,-0.9473683834075928 c0.22510017454624176,-0.31578946113586426 0.7503339052200317,-0.442105233669281 1.1255009174346924,-0.2526315748691559 c0.22510017454624176,0.12631578743457794 4.877170562744141,2.526315689086914 4.5020036697387695,8.084210395812988 C33.09054183959961,31.263157606124878 32.71537399291992,31.51578974723816 32.26517105102539,31.51578974723816 z" fill="#000000" style="" id="svg_22" fill-opacity="1"/></g></g></g></g></svg>