<svg xmlns="http://www.w3.org/2000/svg" version="1.1" height="38.947368621826186" width="155.75188064575195" style=""><rect id="backgroundrect" width="100%" height="100%" x="0" y="0" fill="none" stroke="none"/>
    <defs id="SvgjsDefs1032"/>
    
<g class="currentLayer" style=""><title>Layer 1</title><g id="SvgjsG1033" fill="#000000" class="" fill-opacity="1">
        <path d="M11.85475562882084,6.2103855036320965 C5.304064898735078,6.2103855036320965 0.0011248009302420314,11.416315579085676 0.0011248009302420314,17.89704285771677 C0.0011248009302420314,24.342195747035476 5.304064898735078,29.613348552029493 11.85475562882084,29.613348552029493 C18.411445297201226,29.613348552029493 23.396449746165672,24.342195747035476 23.396449746165672,17.89704285771677 C23.396449746165672,11.416315579085676 18.411445297201226,6.2103855036320965 11.85475562882084,6.2103855036320965 zM11.85475562882084,27.751546782988044 C6.431839554063458,27.751546782988044 2.010723004853446,23.257140683394937 2.010723004853446,17.89704285771677 C2.010723004853446,12.501379690129397 6.431839554063458,8.036603835957976 11.85475562882084,8.036603835957976 C17.283670069782602,8.036603835957976 21.39285012298069,12.501379690129397 21.39285012298069,17.89704285771677 C21.39285012298069,23.257140683394937 17.283670069782602,27.751546782988044 11.85475562882084,27.751546782988044 zM33.99633000232279,13.989632276584416 C31.83676256019953,13.989632276584416 29.67119503560116,14.855305907863112 28.447439083829522,16.3791419310337 C28.321464812183876,16.533300633855106 28.039520433238977,16.622245654539256 28.039520433238977,16.219048131724776 C28.039520433238977,16.189399791496726 28.039520433238977,15.726914635629328 28.039520433238977,15.32372616021803 C28.039520433238977,14.796018274810194 27.601608235355798,14.363181459170846 27.067715313119606,14.363181459170846 L27.001728136059228,14.363181459170846 C26.473833007937174,14.363181459170846 26.065914357346628,14.796018274810194 26.065914357346628,15.32372616021803 L26.065914357346628,32.61951111257076 C26.065914357346628,33.1472189979786 26.473833007937174,33.55041652079308 27.001728136059228,33.55041652079308 L27.067715313119606,33.55041652079308 C27.601608235355798,33.55041652079308 28.039520433238977,33.1472189979786 28.039520433238977,32.61951111257076 C28.039520433238977,32.61951111257076 28.039520433238977,27.538091399710538 28.039520433238977,27.318709967348695 C28.039520433238977,26.980744221477835 28.261475429237635,27.040031854530753 28.321464812183876,27.13490292429924 C29.575214311248146,28.777323260978847 31.71078600019291,29.613348552029493 33.936342907737526,29.613348552029493 C38.32746505151954,29.613348552029493 41.93274572977407,26.174358223252057 41.93274572977407,21.834101779077173 C41.93274572977407,17.49385438230547 38.387452146104806,13.989632276584416 33.99633000232279,13.989632276584416 zM33.936342907737526,27.751546782988044 C30.672993703013162,27.751546782988044 28.06951398053161,25.05371972289595 28.06951398053161,21.834101779077173 C28.06951398053161,18.60855778617406 30.73898088007354,15.851434045625865 33.99633000232279,15.851434045625865 C37.25967691868618,15.851434045625865 39.92914381822811,18.60855778617406 39.92914381822811,21.834101779077173 C39.92914381822811,25.05371972289595 37.22968337139355,27.751546782988044 33.936342907737526,27.751546782988044 zM54.068317575579385,14.363181459170846 L44.75818044825428,14.363181459170846 C44.22428752601809,14.363181459170846 43.786373039773935,14.796018274810194 43.786373039773935,15.32372616021803 L43.786373039773935,15.383013793270948 C43.786373039773935,15.910730726081965 44.22428752601809,16.343567541721313 44.75818044825428,16.343567541721313 L48.08151674756391,16.343567541721313 C48.26747811379482,16.343567541721313 48.39345238544047,16.49772624454272 48.39345238544047,16.657820043851643 L48.39345238544047,28.24961537557101 C48.39345238544047,28.777323260978847 48.83136687168462,29.210160076618195 49.36525979392081,29.210160076618195 L49.46123822991285,29.210160076618195 C49.99513115214904,29.210160076618195 50.433045638393196,28.777323260978847 50.433045638393196,28.24961537557101 L50.433045638393196,16.657820043851643 C50.433045638393196,16.49772624454272 50.55901991003884,16.343567541721313 50.714990017338096,16.343567541721313 L54.068317575579385,16.343567541721313 C54.60221049781558,16.343567541721313 55.04612048981289,15.910730726081965 55.04612048981289,15.383013793270948 L55.04612048981289,15.32372616021803 C55.04612048981289,14.796018274810194 54.60221049781558,14.363181459170846 54.068317575579385,14.363181459170846 zM64.80017218585726,13.989632276584416 C60.43904587772886,13.989632276584416 56.893752294059595,17.49385438230547 56.893752294059595,21.798527389764786 C56.893752294059595,26.10913549371162 60.43904587772886,29.613348552029493 64.80017218585726,29.613348552029493 C69.18529882388611,29.613348552029493 72.73058783083343,26.10913549371162 72.73058783083343,21.798527389764786 C72.73058783083343,17.49385438230547 69.18529882388611,13.989632276584416 64.80017218585726,13.989632276584416 zM64.80017218585726,27.751546782988044 C61.56681881678651,27.751546782988044 58.903349711358715,25.0240713826679 58.903349711358715,21.798527389764786 C58.903349711358715,18.578918493349192 61.56681881678651,15.851434045625865 64.80017218585726,15.851434045625865 C68.05752130810652,15.851434045625865 70.6909945778807,18.578918493349192 70.6909945778807,21.798527389764786 C70.6909945778807,25.0240713826679 68.05752130810652,27.751546782988044 64.80017218585726,27.751546782988044 zM87.06772311936584,14.363181459170846 L76.27587683778074,14.363181459170846 C75.74198391554455,14.363181459170846 75.30407400602235,14.796018274810194 75.30407400602235,15.32372616021803 L75.30407400602235,28.24961537557101 C75.30407400602235,28.777323260978847 75.74198391554455,29.210160076618195 76.27587683778074,29.210160076618195 L76.37185985049473,29.210160076618195 C76.90575277273092,29.210160076618195 77.34366268225313,28.777323260978847 77.34366268225313,28.24961537557101 L77.34366268225313,16.657820043851643 C77.34366268225313,16.49772624454272 77.46964153062072,16.343567541721313 77.62560706119802,16.343567541721313 L85.71799289594856,16.343567541721313 C85.87395842652586,16.343567541721313 86.02993311054706,16.49772624454272 86.02993311054706,16.657820043851643 L86.02993311054706,28.24961537557101 C86.02993311054706,28.777323260978847 86.46784302006927,29.210160076618195 87.00173594230546,29.210160076618195 L87.06772311936584,29.210160076618195 C87.59562053584887,29.210160076618195 88.03952595112423,28.777323260978847 88.03952595112423,28.24961537557101 L88.03952595112423,15.32372616021803 C88.03952595112423,14.796018274810194 87.59562053584887,14.363181459170846 87.06772311936584,14.363181459170846 zM106.13191194273531,20.221329782625617 C105.9159547408508,18.66785446663016 105.25608297024701,17.339686632080884 104.15831044356491,16.254622521037163 C102.59262301826311,14.701147205041707 100.73898655481935,13.989632276584416 98.54343234801127,13.989632276584416 C96.34786898775928,13.989632276584416 94.50023718351258,14.701147205041707 92.92855425245762,16.254622521037163 C91.39285350936552,17.772532495123414 90.60701204383804,19.598750827449294 90.60701204383804,21.768879049536736 C90.60701204383804,23.939007271624178 91.39285350936552,25.771160700437576 92.92855425245762,27.318709967348695 C94.50023718351258,28.836610894031764 96.34786898775928,29.613348552029493 98.54343234801127,29.613348552029493 C100.83496956753334,29.613348552029493 103.00053709213171,28.65280385098231 104.5362286817799,26.885873151709347 C104.974147744746,26.358165266301512 104.974147744746,25.67628963066909 104.4102589868562,25.30274949548584 C103.6903955449452,24.86990363244331 103.24649012966984,25.178230085489304 102.52663584120273,26.04983881325552 C101.80677239929173,26.915521491937398 100.14511111471984,27.751546782988044 98.54343234801127,27.751546782988044 C96.91175774564908,27.751546782988044 95.5320316865782,26.980744221477835 94.4042541707986,25.860105721121727 C93.36646416197982,24.86990363244331 92.80257540409002,23.601032478350135 92.67660570916632,22.04755716235468 C92.64660987351272,21.58507200648728 92.7425837327828,21.460552596490743 93.18050279574891,21.460552596490743 L105.19009579318663,21.460552596490743 C106.0719202714281,21.460552596490743 106.1978991197957,20.683814938493015 106.13191194273531,20.221329782625617 zM103.37245982459353,19.47424046485594 L93.7143957179851,19.47424046485594 C93.21049863140252,19.47424046485594 93.05452394738131,19.44459212462789 93.2764858084629,19.04140364921659 C93.52843435175419,18.63820612640211 93.8703612485624,18.175720970534712 94.37425833514499,17.677661425354927 C95.5320316865782,16.533300633855106 96.91175774564908,15.851434045625865 98.54343234801127,15.851434045625865 C100.14511111471984,15.851434045625865 101.52483717379073,16.533300633855106 102.68260137178004,17.677661425354927 C103.12051128130224,18.080849900766225 103.43844700165391,18.484047423580705 103.65440420353843,18.887235898992003 C103.8463702289664,19.195562352037996 104.03233159519732,19.47424046485594 103.37245982459353,19.47424046485594 zM123.13251175997357,14.363181459170846 L123.03652874725958,14.363181459170846 C122.50263582502339,14.363181459170846 122.06472591550119,14.796018274810194 122.06472591550119,15.32372616021803 C122.06472591550119,15.35337450044608 122.06472591550119,16.159760498671858 122.06472591550119,16.189399791496726 C122.06472591550119,16.622245654539256 121.84876871361666,16.49772624454272 121.8127773722099,16.46807790431467 C120.24708994690809,14.825666615038244 118.1475095993701,13.989632276584416 116.01193791042533,13.989632276584416 C111.65080702557498,13.989632276584416 108.075526759696,17.17960188017514 108.075526759696,21.834101779077173 C108.075526759696,26.636843379119455 111.27888429311315,29.613348552029493 116.01193791042533,29.613348552029493 C118.1475095993701,29.613348552029493 120.46904265454577,28.747674920750796 121.93875622057749,26.945160784762265 C122.06472591550119,26.76135374171281 122.25669194092916,27.87606619298458 122.06472591550119,28.55793278121382 C121.87876454927027,29.269456757074295 121.2488886143201,30.11141714461246 120.3070816182153,31.036387456347256 C119.431252645727,31.907996184113472 118.33347096560101,32.43570406952131 117.1757067676117,32.494991702574225 C116.64181384537551,32.524640042802275 115.85597237984803,32.77366981539217 115.95194623911812,33.76979795315492 C116.04193374607894,34.54060956206831 116.79777937595281,34.759990994430154 117.36166813384261,34.66511992466167 C119.05332525406811,34.416090152071774 120.52903432585299,33.734223563842534 121.78278153655629,32.494991702574225 C123.31847312620448,30.977090775891156 124.07432790952225,29.180511736390145 124.07432790952225,27.069680194758803 L124.07432790952225,15.32372616021803 C124.07432790952225,14.796018274810194 123.63640884655615,14.363181459170846 123.13251175997357,14.363181459170846 zM116.01193791042533,27.751546782988044 C112.50263566816284,27.751546782988044 110.11511543592678,25.36797222502628 110.11511543592678,21.834101779077173 C110.11511543592678,18.733077196170598 112.74858870570097,15.851434045625865 116.01193791042533,15.851434045625865 C119.3052829508033,15.851434045625865 122.06472591550119,18.578918493349192 122.06472591550119,21.834101779077173 C122.06472591550119,25.05371972289595 119.3052829508033,27.751546782988044 116.01193791042533,27.751546782988044 zM133.29448210660848,29.613348552029493 C134.54822931731178,29.613348552029493 136.43185246296525,29.180511736390145 137.33767727110717,27.94128892252502 C137.43365113037726,27.81676951252848 137.58962581439846,27.87606619298458 137.58962581439846,28.00058560298112 C137.58962581439846,28.065808332521556 137.58962581439846,28.344477397936316 137.58962581439846,28.403774078392416 C137.58962581439846,28.836610894031764 138.06352706532743,29.210160076618195 138.56142864615686,29.210160076618195 L138.65741165887084,29.210160076618195 C139.19130458110703,29.210160076618195 139.65921032628285,28.777323260978847 139.65921032628285,28.21996703534296 L139.62921449062924,15.35337450044608 C139.62921449062924,14.796018274810194 139.19130458110703,14.363181459170846 138.62741582321723,14.363181459170846 L138.56142864615686,14.363181459170846 C137.99753988826706,14.363181459170846 137.55962997874485,14.796018274810194 137.55962997874485,15.35337450044608 C137.55962997874485,15.35337450044608 137.55962997874485,23.352002705760242 137.55962997874485,23.725551888346672 C137.55962997874485,26.358165266301512 136.17990391967396,27.692259149935126 133.29448210660848,27.692259149935126 C131.0689320641468,27.692259149935126 129.2812827777634,26.298868585845412 129.2812827777634,23.16226961362645 L129.2812827777634,15.35337450044608 C129.2812827777634,14.796018274810194 128.8433728682412,14.363181459170846 128.309479946005,14.363181459170846 L128.21349693329103,14.363181459170846 C127.67960401105483,14.363181459170846 127.21169826587902,14.796018274810194 127.21169826587902,15.35337450044608 L127.21169826587902,23.286779976219805 C127.21169826587902,28.184392646030574 130.3790644578894,29.613348552029493 133.29448210660848,29.613348552029493 zM152.70661163942714,14.452117432451814 C151.83077351349493,14.114142639177771 150.98494953010413,13.989632276584416 150.01313754490184,13.989632276584416 C147.25369458020396,13.989632276584416 142.70060682336953,14.238662049174309 142.70060682336953,18.389176353812218 C142.70060682336953,20.683814938493015 143.9243581984192,21.798527389764786 145.96394687465,22.39145800471306 C146.2758870892485,22.480393977994026 146.3718701019625,22.575265047762514 146.1199215586712,22.883591500808507 C144.5542341333694,24.840264339618443 142.4546537858314,27.62703642039469 142.4546537858314,27.62703642039469 C142.13671806547973,28.030224895805986 142.2027052425401,28.65280385098231 142.6406151520623,28.961130304028302 L142.70060682336953,29.02635303356874 C143.1445122386449,29.334679486614732 143.7383968321883,29.239808416846245 144.08032372899652,28.806971601206897 C144.08032372899652,28.806971601206897 146.4018659376161,25.456908198307246 147.87756585595707,23.381651045988292 C148.22549741196235,22.883591500808507 148.94535170042946,22.824294820352407 149.63521930668685,22.824294820352407 C149.69520182455017,22.824294820352407 150.73300098681284,22.824294820352407 150.73300098681284,22.824294820352407 C151.17091089633504,22.824294820352407 151.26689390904903,23.10297293317035 151.26689390904903,23.44687377552873 C151.26689390904903,23.81448786162764 151.26689390904903,28.24961537557101 151.26689390904903,28.24961537557101 C151.26689390904903,28.777323260978847 151.70480381857124,29.210160076618195 152.23869674080743,29.210160076618195 L152.3346797535214,29.210160076618195 C152.86256801656054,29.210160076618195 153.3064917387237,28.777323260978847 153.3064917387237,28.24961537557101 L153.3064917387237,15.32372616021803 C153.3064917387237,14.92052863740355 153.05453404198852,14.576636842448352 152.70661163942714,14.452117432451814 zM144.7101996639467,18.389176353812218 C144.7101996639467,16.657820043851643 145.90396435678667,16.06488942890337 147.25369458020396,15.881082385853915 C148.38146294253966,15.726914635629328 150.16911222892304,15.851434045625865 150.60702213844525,15.881082385853915 C150.98494953010413,15.910730726081965 151.26689390904903,16.09453776913142 151.26689390904903,16.46807790431467 C151.26689390904903,17.55314201535839 151.26689390904903,19.136265671581896 151.26689390904903,20.47035955521551 C151.26689390904903,20.683814938493015 151.17091089633504,20.962493051310958 150.82897484608293,20.962493051310958 C150.51103912573126,20.962493051310958 149.91716368563175,20.962493051310958 149.91716368563175,20.962493051310958 C146.71980165796776,20.932844711082907 144.7101996639467,20.808334348489552 144.7101996639467,18.389176353812218 z" fill="#000000" style="" id="svg_1" fill-opacity="1"/>
    </g></g></svg>